<svg width="24" height="25" viewBox="0 0 24 25" fill="none" xmlns="http://www.w3.org/2000/svg">
<path d="M16.5 8.66H7.5C7.08579 8.66 6.75 8.99579 6.75 9.41C6.75 9.82421 7.08579 10.16 7.5 10.16H16.5C16.9142 10.16 17.25 9.82421 17.25 9.41C17.25 8.99579 16.9142 8.66 16.5 8.66Z" fill="white"/>
<path fill-rule="evenodd" clip-rule="evenodd" d="M16.89 4.07H17C19.7614 4.07 22 6.30858 22 9.07V18.07C22 20.8314 19.7614 23.07 17 23.07H7C5.67392 23.07 4.40215 22.5432 3.46447 21.6055C2.52678 20.6679 2 19.3961 2 18.07V9.07C2 6.30858 4.23858 4.07 7 4.07H7.09V2.25C7.09 1.83579 7.42579 1.5 7.84 1.5C8.25421 1.5 8.59 1.83579 8.59 2.25V4.07H15.39V2.25C15.39 1.83579 15.7258 1.5 16.14 1.5C16.5542 1.5 16.89 1.83579 16.89 2.25V4.07ZM17 21.57C18.933 21.57 20.5 20.003 20.5 18.07V9.07C20.5 7.137 18.933 5.57 17 5.57H7C5.067 5.57 3.5 7.137 3.5 9.07V18.07C3.5 20.003 5.067 21.57 7 21.57H17Z" fill="white"/>
</svg>
