<svg width="190" height="35" viewBox="0 0 190 35" fill="none" xmlns="http://www.w3.org/2000/svg">
<path d="M58.2385 27.5H52.0945V24.524H58.1665C61.1905 24.524 63.6145 22.076 63.6145 19.076C63.6145 16.052 61.1905 13.628 58.1665 13.628H52.0945V10.652H58.1665C62.8225 10.652 66.5905 14.42 66.5905 19.076C66.5905 23.708 62.8465 27.452 58.2385 27.5ZM68.993 27.5V10.676H71.969V27.5H68.993ZM85.8802 20.588H81.0802V17.612H85.8802C88.6162 17.612 90.8242 19.82 90.8242 22.556C90.8242 25.292 88.6162 27.5 85.8802 27.5H82.7362C78.1042 27.476 74.3602 23.732 74.3602 19.1C74.3602 14.444 78.1282 10.676 82.7842 10.676H88.8562V13.652H82.7842C79.7602 13.652 77.3362 16.076 77.3362 19.1C77.3362 22.1 79.7602 24.524 82.7842 24.524H85.8802C88.4962 24.524 88.4962 20.588 85.8802 20.588ZM93.2273 27.5V10.676H96.2033V27.5H93.2273ZM101.571 19.076V27.5H98.5945V19.076C98.5945 14.42 102.339 10.652 107.091 10.652H113.163V13.628H107.019C103.995 13.628 101.571 16.052 101.571 19.076ZM110.859 20.564H105.267V17.588H110.859V20.564ZM126.387 20.204L130.275 27.5H126.915L125.259 24.332C124.347 22.772 123.459 20.564 122.475 20.564H120.507C119.427 20.564 118.539 21.452 118.539 22.532V27.5H115.563V22.532C115.563 19.796 117.771 17.588 120.507 17.588H124.515C127.131 17.588 127.131 13.628 124.515 13.628H115.563V10.652H124.515C129.939 10.652 131.379 18.164 126.387 20.204ZM132.673 27.5V10.676H135.649V27.5H132.673ZM143.008 24.524H149.248V27.5H143.008C140.272 27.5 138.04 25.268 138.04 22.532V10.676H141.016V22.532C141.016 23.636 141.904 24.524 143.008 24.524ZM155.43 24.524H161.67V27.5H155.43C152.694 27.5 150.462 25.268 150.462 22.532V10.676H153.438V22.532C153.438 23.636 154.326 24.524 155.43 24.524ZM168.414 10.652H177.27V13.628H168.414C165.822 13.628 165.822 17.588 168.414 17.588H173.934C176.67 17.588 178.902 19.796 178.902 22.532C178.902 25.268 176.67 27.5 173.934 27.5H164.622V24.524H173.934C176.55 24.524 176.55 20.564 173.934 20.564H168.294C165.606 20.492 163.47 18.308 163.47 15.596C163.47 12.86 165.678 10.652 168.414 10.652Z" fill="#A1BFE2"/>
<g filter="url(#filter0_d_2182_16970)">
<path d="M3.2002 31.0315C6.50716 31.0698 9.6951 29.8217 12.0627 27.562C14.4303 25.3024 15.7836 22.216 15.8249 18.9821C15.8663 15.7482 14.5922 12.6316 12.283 10.3178C9.97376 8.00409 6.81859 6.68274 3.51163 6.64453L3.43945 12.2968C5.21347 12.3173 6.90604 13.0262 8.14481 14.2673C9.38359 15.5086 10.067 17.1805 10.0449 18.9153C10.0228 20.6502 9.29678 22.3058 8.02667 23.518C6.75656 24.7303 5.0464 25.3997 3.2723 25.3792L3.2002 31.0315Z" fill="#A1BFE2"/>
</g>
<path d="M33.8072 6.50339C35.7253 6.50107 37.2803 8.05413 37.2803 9.97225C37.2803 11.8904 35.7253 13.4472 33.8072 13.4495L20.3893 13.4658C18.4712 13.4681 16.9163 11.915 16.9163 9.99689C16.9163 8.07877 18.4712 6.52195 20.3893 6.51962L33.8072 6.50339Z" fill="#A1BFE2"/>
<path d="M36.928 10.0069C36.9061 11.7327 35.5103 13.1157 33.8105 13.0959C32.1107 13.0762 30.7504 11.6611 30.7723 9.93534C30.7942 8.20956 32.19 6.82657 33.8899 6.84633C35.5897 6.8661 36.9499 8.28114 36.928 10.0069Z" fill="#A1BFE2"/>
<g filter="url(#filter1_i_2182_16970)">
<path d="M6.35576 18.8287C6.33535 20.4355 5.01619 21.723 3.40933 21.7043C1.80247 21.6856 0.516388 20.3678 0.53679 18.761C0.557192 17.1542 1.87635 15.8667 3.48321 15.8854C5.09008 15.9041 6.37616 17.2218 6.35576 18.8287Z" fill="#176169"/>
</g>
<path d="M6.35624 18.8287C6.33584 20.4355 5.01668 21.723 3.40982 21.7043C1.80296 21.6856 0.516876 20.3678 0.537278 18.761C0.55768 17.1542 1.87684 15.8667 3.4837 15.8854C5.09056 15.9041 6.37665 17.2218 6.35624 18.8287Z" fill="#A1BFE2"/>
<path d="M27.1602 15.4487C29.0784 15.4464 30.6333 16.9994 30.6333 18.9176C30.6333 20.8357 29.0784 22.3925 27.1602 22.3948L20.6009 22.4028C18.6828 22.4051 17.1278 20.852 17.1278 18.9339C17.1278 17.0158 18.6828 15.459 20.6009 15.4566L27.1602 15.4487Z" fill="#0D0D0D"/>
<path d="M27.1634 22.033C28.8632 22.0528 30.259 20.6698 30.2809 18.944C30.3028 17.2183 28.9426 15.8032 27.2428 15.7834C25.5429 15.7637 24.1472 17.1466 24.1253 18.8725C24.1034 20.5982 25.4636 22.0132 27.1634 22.033Z" fill="#A1BFE2"/>
<g filter="url(#filter2_d_2182_16970)">
<path d="M23.4108 27.7718C23.389 29.4934 21.9756 30.8728 20.254 30.8528C18.5323 30.8328 17.1544 29.4209 17.1762 27.6993C17.1981 25.9777 18.6115 24.5983 20.3331 24.6183C22.0548 24.6383 23.4327 26.0502 23.4108 27.7718Z" fill="#A1BFE2"/>
</g>
<path d="M27.1602 15.4409C29.0784 15.4386 30.6333 16.9916 30.6333 18.9097C30.6333 20.8279 29.0784 22.3847 27.1602 22.387L20.6009 22.395C18.6828 22.3973 17.1278 20.8442 17.1278 18.9261C17.1278 17.008 18.6828 15.4511 20.6009 15.4488L27.1602 15.4409Z" fill="#A1BFE2"/>
<path d="M27.1634 22.033C28.8632 22.0528 30.259 20.6698 30.2809 18.944C30.3028 17.2183 28.9426 15.8032 27.2428 15.7834C25.5429 15.7637 24.1472 17.1466 24.1253 18.8725C24.1034 20.5982 25.4636 22.0132 27.1634 22.033Z" fill="#A1BFE2"/>
<path d="M16.9355 27.7562C16.9378 29.6742 18.4947 31.2292 20.4128 31.2292C22.3309 31.2292 23.884 29.6742 23.8817 27.7562L23.871 18.9106C23.8686 16.9925 22.3118 15.4375 20.3937 15.4375C18.4756 15.4375 16.9225 16.9925 16.9248 18.9106L16.9355 27.7562Z" fill="#A1BFE2"/>
<path d="M20.4145 30.6599C22.1143 30.6797 23.5101 29.2967 23.532 27.571C23.5539 25.8452 22.1936 24.4301 20.4938 24.4104C18.7939 24.3906 17.3982 25.7736 17.3762 27.4994C17.3543 29.2252 18.7146 30.6402 20.4145 30.6599Z" fill="#A1BFE2"/>
<mask id="mask0_2182_16970" style="mask-type:alpha" maskUnits="userSpaceOnUse" x="16" y="15" width="12" height="8">
<path d="M23.6329 15.4409C25.551 15.4386 27.106 16.9916 27.106 18.9097C27.106 20.8279 25.551 22.3847 23.6329 22.387L20.3951 22.3909C18.477 22.3933 16.9221 20.8402 16.9221 18.9221C16.9221 17.004 18.477 15.4471 20.3951 15.4448L23.6329 15.4409Z" fill="#FF3232"/>
</mask>
<g mask="url(#mask0_2182_16970)">
<path d="M16.9336 27.7561C16.9359 29.6742 18.4926 31.2292 20.4108 31.2292C22.3289 31.2292 23.8819 29.6742 23.8796 27.7561L23.8689 18.9106C23.8666 16.9925 22.3098 15.4375 20.3917 15.4375C18.4735 15.4375 16.9205 16.9924 16.9229 18.9106L16.9336 27.7561Z" fill="#0D0D0D" fill-opacity="0.2"/>
</g>
<path d="M56.236 6.036L58.18 1.988H58.86L59.532 7.5H58.796L58.292 3.356L56.572 6.892H55.916L54.18 3.356L53.676 7.5H52.94L53.612 1.988H54.292L56.236 6.036ZM61.4008 5.428H63.2248L62.3128 2.98L61.4008 5.428ZM63.4808 6.1H61.1448L60.6088 7.5H59.8168L61.9128 1.988H62.7128L64.8008 7.5H64.0168L63.4808 6.1ZM67.533 7.5H65.397V1.988H67.533C69.101 1.988 70.013 3.188 70.013 4.756C70.013 6.324 69.101 7.5 67.533 7.5ZM66.141 6.804H67.533C68.677 6.804 69.269 5.916 69.269 4.756C69.269 3.596 68.677 2.684 67.533 2.684H66.141V6.804ZM70.9461 1.988H74.2101V2.684H71.6901V4.444H73.8901V5.14H71.6901V6.804H74.2901V7.5H70.9461V1.988ZM77.0676 1.988H77.8116V7.5H77.0676V1.988ZM83.0456 7.5H82.3336L79.8216 3.348V7.5H79.0776V1.988H79.8136L82.3016 6.108V1.988H83.0456V7.5Z" fill="white" fill-opacity="0.94"/>
<defs>
<filter id="filter0_d_2182_16970" x="2.67604" y="5.98933" width="13.6738" height="25.437" filterUnits="userSpaceOnUse" color-interpolation-filters="sRGB">
<feFlood flood-opacity="0" result="BackgroundImageFix"/>
<feColorMatrix in="SourceAlpha" type="matrix" values="0 0 0 0 0 0 0 0 0 0 0 0 0 0 0 0 0 0 127 0" result="hardAlpha"/>
<feOffset dy="-0.13104"/>
<feGaussianBlur stdDeviation="0.26208"/>
<feComposite in2="hardAlpha" operator="out"/>
<feColorMatrix type="matrix" values="0 0 0 0 0 0 0 0 0 0 0 0 0 0 0 0 0 0 0.25 0"/>
<feBlend mode="normal" in2="BackgroundImageFix" result="effect1_dropShadow_2182_16970"/>
<feBlend mode="normal" in="SourceGraphic" in2="effect1_dropShadow_2182_16970" result="shape"/>
</filter>
<filter id="filter1_i_2182_16970" x="0.536621" y="15.8848" width="5.81934" height="6.34447" filterUnits="userSpaceOnUse" color-interpolation-filters="sRGB">
<feFlood flood-opacity="0" result="BackgroundImageFix"/>
<feBlend mode="normal" in="SourceGraphic" in2="BackgroundImageFix" result="shape"/>
<feColorMatrix in="SourceAlpha" type="matrix" values="0 0 0 0 0 0 0 0 0 0 0 0 0 0 0 0 0 0 127 0" result="hardAlpha"/>
<feOffset dy="0.52416"/>
<feGaussianBlur stdDeviation="0.26208"/>
<feComposite in2="hardAlpha" operator="arithmetic" k2="-1" k3="1"/>
<feColorMatrix type="matrix" values="0 0 0 0 0 0 0 0 0 0 0 0 0 0 0 0 0 0 0.25 0"/>
<feBlend mode="normal" in2="shape" result="effect1_innerShadow_2182_16970"/>
</filter>
<filter id="filter2_d_2182_16970" x="16.6516" y="24.6172" width="7.28367" height="7.28465" filterUnits="userSpaceOnUse" color-interpolation-filters="sRGB">
<feFlood flood-opacity="0" result="BackgroundImageFix"/>
<feColorMatrix in="SourceAlpha" type="matrix" values="0 0 0 0 0 0 0 0 0 0 0 0 0 0 0 0 0 0 127 0" result="hardAlpha"/>
<feOffset dy="0.52416"/>
<feGaussianBlur stdDeviation="0.26208"/>
<feComposite in2="hardAlpha" operator="out"/>
<feColorMatrix type="matrix" values="0 0 0 0 0 0 0 0 0 0 0 0 0 0 0 0 0 0 0.25 0"/>
<feBlend mode="normal" in2="BackgroundImageFix" result="effect1_dropShadow_2182_16970"/>
<feBlend mode="normal" in="SourceGraphic" in2="effect1_dropShadow_2182_16970" result="shape"/>
</filter>
</defs>
</svg>
