<svg width="86" height="84" viewBox="0 0 86 84" fill="none" xmlns="http://www.w3.org/2000/svg">
<g clip-path="url(#clip0_2175_15081)">
<path fill-rule="evenodd" clip-rule="evenodd" d="M73.057 52.311C74.608 52.89 76.339 52.104 76.918 50.553C78.664 45.891 79.315 40.977 78.862 35.946C77.497 20.838 65.629 8.37898 50.641 6.31498C38.533 4.67098 26.914 9.49198 19.666 19.167C15.793 23.955 6.99701 40.737 6.99701 44.997C6.99701 47.907 9.10001 50.997 12.997 50.997H13.987L14.644 55.965C15.628 63.396 22.021 68.997 29.515 68.997H30.997C30.997 73.959 35.035 77.997 39.997 77.997H60.997C62.578 77.997 64.135 77.583 65.497 76.794C66.931 75.963 67.423 74.13 66.595 72.696C65.767 71.259 63.928 70.77 62.497 71.598C62.044 71.862 61.525 72 60.997 72H39.997C38.341 72 36.997 70.656 36.997 69V66C36.997 64.341 35.656 63 33.997 63H29.515C25.018 63 21.181 59.637 20.59 55.182L19.588 47.61C19.393 46.119 18.121 45.003 16.615 45.003L12.994 45.075C13.243 42.582 20.371 27.84 24.4 22.857C30.388 14.865 39.886 10.908 49.825 12.264C62.074 13.947 71.77 24.135 72.886 36.489C73.258 40.614 72.727 44.637 71.299 48.45C70.72 50.001 71.506 51.732 73.057 52.311Z" fill="#0067FF"/>
<path fill-rule="evenodd" clip-rule="evenodd" d="M72.121 60.879C73.294 62.052 73.294 63.948 72.121 65.121C71.536 65.706 70.768 66 70 66C69.232 66 68.464 65.706 67.879 65.121L56.413 53.655C53.47 55.752 49.882 57 46 57C36.073 57 28 48.927 28 39C28 29.073 36.073 21 46 21C55.927 21 64 29.073 64 39C64 42.882 62.752 46.47 60.655 49.413L72.121 60.879ZM58 39C58 45.618 52.618 51 46 51C39.382 51 34 45.618 34 39C34 32.382 39.382 27 46 27C52.618 27 58 32.382 58 39Z" fill="#B7D5FF"/>
</g>
<defs>
<clipPath id="clip0_2175_15081">
<rect width="72" height="72" fill="white" transform="translate(7 6)"/>
</clipPath>
</defs>
</svg>
