<svg width="101" height="100" viewBox="0 0 101 100" fill="none" xmlns="http://www.w3.org/2000/svg">
<g clip-path="url(#clip0_2175_15080)">
<path d="M87.1667 76.6667H59.8867C59.3887 75.2725 58.5873 74.0063 57.5405 72.9595C56.4937 71.9127 55.2275 71.1113 53.8333 70.6133V60H67.1667C70.7029 60 74.0943 58.5952 76.5947 56.0948C79.0952 53.5943 80.5 50.2029 80.5 46.6667V30C80.5 26.4638 79.0952 23.0724 76.5947 20.5719C74.0943 18.0714 70.7029 16.6667 67.1667 16.6667H52.57C51.8978 16.6666 51.2413 16.4632 50.6867 16.0833L44.4 11.76C42.7334 10.612 40.757 9.99817 38.7333 10H33.8333C30.2971 10 26.9057 11.4048 24.4052 13.9052C21.9048 16.4057 20.5 19.7971 20.5 23.3333V46.6667C20.5 50.2029 21.9048 53.5943 24.4052 56.0948C26.9057 58.5952 30.2971 60 33.8333 60H47.1667V70.6133C45.7725 71.1113 44.5063 71.9127 43.4595 72.9595C42.4127 74.0063 41.6113 75.2725 41.1133 76.6667H13.8333C12.9493 76.6667 12.1014 77.0179 11.4763 77.643C10.8512 78.2681 10.5 79.116 10.5 80C10.5 80.8841 10.8512 81.7319 11.4763 82.357C12.1014 82.9822 12.9493 83.3333 13.8333 83.3333H41.1133C41.7922 85.2818 43.0605 86.9708 44.7425 88.1659C46.4245 89.3611 48.4367 90.0032 50.5 90.0032C52.5633 90.0032 54.5755 89.3611 56.2575 88.1659C57.9395 86.9708 59.2078 85.2818 59.8867 83.3333H87.1667C88.0507 83.3333 88.8986 82.9822 89.5237 82.357C90.1488 81.7319 90.5 80.8841 90.5 80C90.5 79.116 90.1488 78.2681 89.5237 77.643C88.8986 77.0179 88.0507 76.6667 87.1667 76.6667ZM33.8333 16.6667H38.7333C39.4082 16.6664 40.0672 16.871 40.6233 17.2533L46.9033 21.5867C48.5687 22.7376 50.5457 23.3528 52.57 23.35H67.1667C68.9348 23.35 70.6305 24.0524 71.8807 25.3026C73.131 26.5529 73.8333 28.2486 73.8333 30.0167H27.1667V23.3333C27.1667 21.5652 27.869 19.8695 29.1193 18.6193C30.3695 17.3691 32.0652 16.6667 33.8333 16.6667ZM27.1667 46.6667V36.6667H73.8333V46.6667C73.8333 48.4348 73.131 50.1305 71.8807 51.3807C70.6305 52.631 68.9348 53.3333 67.1667 53.3333H33.8333C32.0652 53.3333 30.3695 52.631 29.1193 51.3807C27.869 50.1305 27.1667 48.4348 27.1667 46.6667ZM50.5 83.3333C49.8407 83.3333 49.1963 83.1379 48.6481 82.7716C48.0999 82.4053 47.6727 81.8847 47.4204 81.2756C47.1681 80.6665 47.1021 79.9963 47.2307 79.3497C47.3593 78.7031 47.6768 78.1092 48.143 77.643C48.6092 77.1768 49.2031 76.8593 49.8497 76.7307C50.4963 76.6021 51.1665 76.6681 51.7756 76.9204C52.3847 77.1727 52.9053 77.5999 53.2716 78.1481C53.6378 78.6963 53.8333 79.3407 53.8333 80C53.8333 80.8841 53.4821 81.7319 52.857 82.357C52.2319 82.9822 51.3841 83.3333 50.5 83.3333Z" fill="#0067FF"/>
<path fill-rule="evenodd" clip-rule="evenodd" d="M50.5 90.0078C56.0228 90.0078 60.5 85.5307 60.5 80.0078C60.5 74.485 56.0228 70.0078 50.5 70.0078C44.9772 70.0078 40.5 74.485 40.5 80.0078C40.5 85.5307 44.9772 90.0078 50.5 90.0078ZM50.4752 83.2004C52.2426 83.2004 53.6752 81.7678 53.6752 80.0004C53.6752 78.2331 52.2426 76.8004 50.4752 76.8004C48.7079 76.8004 47.2752 78.2331 47.2752 80.0004C47.2752 81.7678 48.7079 83.2004 50.4752 83.2004Z" fill="#B7D5FF"/>
<path fill-rule="evenodd" clip-rule="evenodd" d="M59.8354 83.6004C60.2647 82.4855 60.5 81.2744 60.5 80.0082C60.5 78.7362 60.2625 77.5196 59.8294 76.4004H86.9C88.8882 76.4004 90.5 78.0122 90.5 80.0004C90.5 81.9886 88.8882 83.6004 86.9 83.6004H59.8354ZM41.1646 83.6004H14.1C12.1118 83.6004 10.5 81.9886 10.5 80.0004C10.5 78.0122 12.1118 76.4004 14.1 76.4004H41.1706C40.7375 77.5196 40.5 78.7362 40.5 80.0082C40.5 81.2744 40.7353 82.4855 41.1646 83.6004Z" fill="#B7D5FF"/>
</g>
<defs>
<clipPath id="clip0_2175_15080">
<rect width="80" height="80" fill="white" transform="translate(10.5 10)"/>
</clipPath>
</defs>
</svg>
