<svg width="90" height="91" viewBox="0 0 90 91" fill="none" xmlns="http://www.w3.org/2000/svg">
<g clip-path="url(#clip0_43_1083)">
<path d="M45 0.5C20.1474 0.5 0 20.6474 0 45.5C0 66.6032 14.5296 84.3116 34.1298 89.1752V59.252H24.8508V45.5H34.1298V39.5744C34.1298 24.2582 41.0616 17.159 56.0988 17.159C58.95 17.159 63.8694 17.7188 65.8818 18.2768V30.7418C64.8198 30.6302 62.9748 30.5744 60.6834 30.5744C53.3052 30.5744 50.454 33.3698 50.454 40.6364V45.5H65.1528L62.6274 59.252H50.454V90.1706C72.7362 87.4796 90.0018 68.5076 90.0018 45.5C90 20.6474 69.8526 0.5 45 0.5Z" fill="#0067FF"/>
</g>
<defs>
<clipPath id="clip0_43_1083">
<rect width="90" height="90" fill="white" transform="translate(0 0.5)"/>
</clipPath>
</defs>
</svg>
