<svg width="90" height="91" viewBox="0 0 90 91" fill="none" xmlns="http://www.w3.org/2000/svg">
<g clip-path="url(#clip0_43_1081)">
<path d="M45 8.60352C57.0234 8.60352 58.4473 8.65625 63.1758 8.86719C67.5703 9.06055 69.9434 9.79883 71.5254 10.4141C73.6172 11.2227 75.1289 12.207 76.6934 13.7715C78.2754 15.3535 79.2422 16.8477 80.0508 18.9395C80.666 20.5215 81.4043 22.9121 81.5977 27.2891C81.8086 32.0352 81.8613 33.459 81.8613 45.4648C81.8613 57.4883 81.8086 58.9121 81.5977 63.6406C81.4043 68.0352 80.666 70.4082 80.0508 71.9902C79.2422 74.082 78.2578 75.5938 76.6934 77.1582C75.1113 78.7402 73.6172 79.707 71.5254 80.5156C69.9434 81.1309 67.5527 81.8691 63.1758 82.0625C58.4297 82.2734 57.0059 82.3262 45 82.3262C32.9766 82.3262 31.5527 82.2734 26.8242 82.0625C22.4297 81.8691 20.0566 81.1309 18.4746 80.5156C16.3828 79.707 14.8711 78.7227 13.3066 77.1582C11.7246 75.5762 10.7578 74.082 9.94922 71.9902C9.33398 70.4082 8.5957 68.0176 8.40234 63.6406C8.19141 58.8945 8.13867 57.4707 8.13867 45.4648C8.13867 33.4414 8.19141 32.0176 8.40234 27.2891C8.5957 22.8945 9.33398 20.5215 9.94922 18.9395C10.7578 16.8477 11.7422 15.3359 13.3066 13.7715C14.8887 12.1895 16.3828 11.2227 18.4746 10.4141C20.0566 9.79883 22.4473 9.06055 26.8242 8.86719C31.5527 8.65625 32.9766 8.60352 45 8.60352ZM45 0.5C32.7832 0.5 31.2539 0.552734 26.4551 0.763672C21.6738 0.974609 18.3867 1.74805 15.5391 2.85547C12.5684 4.01562 10.0547 5.54492 7.55859 8.05859C5.04492 10.5547 3.51562 13.0684 2.35547 16.0215C1.24805 18.8867 0.474609 22.1562 0.263672 26.9375C0.0527344 31.7539 0 33.2832 0 45.5C0 57.7168 0.0527344 59.2461 0.263672 64.0449C0.474609 68.8262 1.24805 72.1133 2.35547 74.9609C3.51562 77.9316 5.04492 80.4453 7.55859 82.9414C10.0547 85.4375 12.5684 86.9844 15.5215 88.127C18.3867 89.2344 21.6562 90.0078 26.4375 90.2188C31.2363 90.4297 32.7656 90.4824 44.9824 90.4824C57.1992 90.4824 58.7285 90.4297 63.5273 90.2188C68.3086 90.0078 71.5957 89.2344 74.4434 88.127C77.3965 86.9844 79.9102 85.4375 82.4062 82.9414C84.9023 80.4453 86.4492 77.9316 87.5918 74.9785C88.6992 72.1133 89.4727 68.8438 89.6836 64.0625C89.8945 59.2637 89.9473 57.7344 89.9473 45.5176C89.9473 33.3008 89.8945 31.7715 89.6836 26.9727C89.4727 22.1914 88.6992 18.9043 87.5918 16.0566C86.4844 13.0684 84.9551 10.5547 82.4414 8.05859C79.9453 5.5625 77.4316 4.01563 74.4785 2.87305C71.6133 1.76562 68.3438 0.992188 63.5625 0.78125C58.7461 0.552734 57.2168 0.5 45 0.5Z" fill="#0067FF"/>
<path d="M45 22.3848C32.2383 22.3848 21.8848 32.7383 21.8848 45.5C21.8848 58.2617 32.2383 68.6152 45 68.6152C57.7617 68.6152 68.1152 58.2617 68.1152 45.5C68.1152 32.7383 57.7617 22.3848 45 22.3848ZM45 60.4941C36.7207 60.4941 30.0059 53.7793 30.0059 45.5C30.0059 37.2207 36.7207 30.5059 45 30.5059C53.2793 30.5059 59.9941 37.2207 59.9941 45.5C59.9941 53.7793 53.2793 60.4941 45 60.4941Z" fill="#0067FF"/>
<path d="M74.4258 21.4707C74.4258 24.459 72 26.8672 69.0293 26.8672C66.041 26.8672 63.6328 24.4414 63.6328 21.4707C63.6328 18.4824 66.0586 16.0742 69.0293 16.0742C72 16.0742 74.4258 18.5 74.4258 21.4707Z" fill="#0067FF"/>
</g>
<defs>
<clipPath id="clip0_43_1081">
<rect width="90" height="90" fill="white" transform="translate(0 0.5)"/>
</clipPath>
</defs>
</svg>
