<svg width="95" height="95" viewBox="0 0 95 95" fill="none" xmlns="http://www.w3.org/2000/svg">
<path fill-rule="evenodd" clip-rule="evenodd" d="M1.57266 31.2727V94.282H21.1664V31.2727H1.57266ZM0 11.3438C0 17.6086 5.07891 22.6875 11.3695 22.6875C17.6344 22.6875 22.7133 17.5828 22.7133 11.3438C22.7133 5.07891 17.6344 0 11.3695 0C5.07891 0 0 5.07891 0 11.3438ZM74.9203 94.282H94.4883V59.7094C94.4883 42.7453 90.8273 29.7 71.0016 29.7C61.4883 29.7 55.0945 34.9336 52.4906 39.8836H52.2328V31.2727H33.4641V94.282H53.0062V63.1383C53.0062 54.9141 54.5531 46.9477 64.7367 46.9477C74.7914 46.9477 74.9203 56.3578 74.9203 63.6539V94.282Z" fill="#0065FB"/>
</svg>
