<svg width="151" height="142" viewBox="0 0 151 142" fill="none" xmlns="http://www.w3.org/2000/svg">
<rect x="0.5" width="150" height="142" rx="31" fill="#0168FB"/>
<path fill-rule="evenodd" clip-rule="evenodd" d="M73.3607 55.7207C70.4491 55.7207 68.0887 58.0811 68.0887 60.9927V64.2078H64.692C61.7803 64.2078 59.4199 66.5682 59.4199 69.4798C59.4199 72.3915 61.7803 74.7518 64.6919 74.7518H68.0887V77.9687C68.0887 80.8803 70.4491 83.2407 73.3607 83.2407C76.2724 83.2407 78.6328 80.8803 78.6328 77.9687V74.7518H81.6679C84.5796 74.7518 86.9399 72.3915 86.9399 69.4798C86.9399 66.5682 84.5796 64.2078 81.6679 64.2078H78.6328V60.9927C78.6328 58.0811 76.2724 55.7207 73.3607 55.7207Z" fill="white" fill-opacity="0.32"/>
<g filter="url(#filter0_biiii_2208_20439)">
<path fill-rule="evenodd" clip-rule="evenodd" d="M38.094 90.2235H45.7214C45.7214 90.2235 46.6411 87.081 48.0096 85.2657C49.3424 83.4977 52.5861 81.0706 52.5861 81.0706H38.094V90.2235ZM38.0939 90.2234C35.3895 90.2234 32.7115 89.6908 30.213 88.6558C27.7144 87.6209 25.4441 86.104 23.5318 84.1916C21.6195 82.2793 20.1026 80.0091 19.0676 77.5105C18.0327 75.0119 17.5 72.334 17.5 69.6295C17.5 66.9251 18.0327 64.2472 19.0676 61.7486C20.1026 59.25 21.6195 56.9798 23.5318 55.0674C25.4441 53.1551 27.7144 51.6382 30.213 50.6032C32.7115 49.5683 35.3895 49.0356 38.0939 49.0356L38.0939 49.0362H73.1798V58.1891H38.0939L38.0939 58.1958C36.5924 58.1958 35.1056 58.4915 33.7184 59.0661C32.3312 59.6407 31.0708 60.4829 30.009 61.5447C28.9473 62.6064 28.1051 63.8668 27.5305 65.254C26.9559 66.6412 26.6602 68.128 26.6602 69.6295C26.6602 71.131 26.9559 72.6178 27.5305 74.005C28.1051 75.3922 28.9473 76.6527 30.009 77.7144C31.0708 78.7761 32.3312 79.6183 33.7184 80.1929C35.1056 80.7675 36.5924 81.0633 38.0939 81.0633V90.2234ZM56.0567 26.1526C53.7938 29.5392 52.586 33.5208 52.586 37.5939H61.7538C61.7538 35.3341 62.4239 33.1249 63.6795 31.2459C64.935 29.3669 66.7195 27.9024 68.8073 27.0376C70.8952 26.1728 73.1926 25.9465 75.409 26.3874C77.6255 26.8283 79.6614 27.9165 81.2594 29.5145C82.8573 31.1124 83.9456 33.1484 84.3865 35.3648C84.8273 37.5813 84.6011 39.8787 83.7362 41.9665C82.8714 44.0544 81.4069 45.8389 79.5279 47.0944C77.6489 48.3499 75.4398 49.02 73.1799 49.02L73.1799 58.1878C77.253 58.1878 81.2346 56.98 84.6213 54.7171C88.0079 52.4543 90.6475 49.2379 92.2062 45.4749C93.7649 41.7118 94.1727 37.5711 93.3781 33.5763C92.5835 29.5814 90.6221 25.9119 87.742 23.0318C84.8619 20.1517 81.1924 18.1903 77.1976 17.3957C73.2028 16.6011 69.062 17.0089 65.299 18.5676C61.5359 20.1263 58.3196 22.7659 56.0567 26.1526ZM108.266 49.0352H100.639C100.639 49.0352 99.7194 52.1777 98.3509 53.993C97.0181 55.7609 93.7745 58.188 93.7745 58.188H108.266L108.266 58.1959C109.768 58.1959 111.255 58.4916 112.642 59.0662C114.029 59.6408 115.29 60.483 116.351 61.5448C117.413 62.6065 118.255 63.8669 118.83 65.2541C119.404 66.6413 119.7 68.1281 119.7 69.6296C119.7 71.1311 119.404 72.6179 118.83 74.0051C118.255 75.3923 117.413 76.6528 116.351 77.7145C115.29 78.7762 114.029 79.6184 112.642 80.193C111.255 80.7676 109.768 81.0634 108.266 81.0634L108.266 81.0701H73.1805L73.1805 81.0704C69.1074 81.0704 65.1258 82.2782 61.7392 84.5411C58.3525 86.804 55.7129 90.0203 54.1542 93.7834C52.5955 97.5464 52.1877 101.687 52.9823 105.682C53.7769 109.677 55.7383 113.346 58.6184 116.226C61.4985 119.107 65.168 121.068 69.1628 121.863C73.1577 122.657 77.2984 122.249 81.0615 120.691C84.8245 119.132 88.0408 116.492 90.3037 113.106C92.5666 109.719 93.7744 105.737 93.7744 101.664H84.6066C84.6066 103.924 83.9365 106.133 82.681 108.012C81.4255 109.891 79.6409 111.356 77.5531 112.221C75.4653 113.085 73.1678 113.312 70.9514 112.871C68.735 112.43 66.699 111.342 65.1011 109.744C63.5031 108.146 62.4149 106.11 61.974 103.893C61.5331 101.677 61.7594 99.3796 62.6242 97.2917C63.489 95.2039 64.9535 93.4194 66.8325 92.1639C68.7115 90.9084 70.9207 90.2382 73.1805 90.2382V90.2229H108.266L108.266 90.2235C110.971 90.2235 113.649 89.6909 116.147 88.6559C118.646 87.621 120.916 86.104 122.829 84.1917C124.741 82.2794 126.258 80.0092 127.293 77.5106C128.328 75.012 128.86 72.3341 128.86 69.6296C128.86 66.9252 128.328 64.2473 127.293 61.7487C126.258 59.2501 124.741 56.9799 122.829 55.0675C120.916 53.1552 118.646 51.6383 116.147 50.6033C113.649 49.5684 110.971 49.0357 108.266 49.0357L108.266 49.0352Z" fill="white"/>
</g>
<defs>
<filter id="filter0_biiii_2208_20439" x="10.78" y="10.28" width="124.8" height="118.698" filterUnits="userSpaceOnUse" color-interpolation-filters="sRGB">
<feFlood flood-opacity="0" result="BackgroundImageFix"/>
<feGaussianBlur in="BackgroundImageFix" stdDeviation="3.36"/>
<feComposite in2="SourceAlpha" operator="in" result="effect1_backgroundBlur_2208_20439"/>
<feBlend mode="normal" in="SourceGraphic" in2="effect1_backgroundBlur_2208_20439" result="shape"/>
<feColorMatrix in="SourceAlpha" type="matrix" values="0 0 0 0 0 0 0 0 0 0 0 0 0 0 0 0 0 0 127 0" result="hardAlpha"/>
<feOffset dx="3.2" dy="3.2"/>
<feGaussianBlur stdDeviation="3.68"/>
<feComposite in2="hardAlpha" operator="arithmetic" k2="-1" k3="1"/>
<feColorMatrix type="matrix" values="0 0 0 0 0.0509804 0 0 0 0 0.603922 0 0 0 0 1 0 0 0 0.18 0"/>
<feBlend mode="normal" in2="shape" result="effect2_innerShadow_2208_20439"/>
<feColorMatrix in="SourceAlpha" type="matrix" values="0 0 0 0 0 0 0 0 0 0 0 0 0 0 0 0 0 0 127 0" result="hardAlpha"/>
<feOffset dy="0.64"/>
<feGaussianBlur stdDeviation="0.96"/>
<feComposite in2="hardAlpha" operator="arithmetic" k2="-1" k3="1"/>
<feColorMatrix type="matrix" values="0 0 0 0 1 0 0 0 0 1 0 0 0 0 1 0 0 0 0.05 0"/>
<feBlend mode="normal" in2="effect2_innerShadow_2208_20439" result="effect3_innerShadow_2208_20439"/>
<feColorMatrix in="SourceAlpha" type="matrix" values="0 0 0 0 0 0 0 0 0 0 0 0 0 0 0 0 0 0 127 0" result="hardAlpha"/>
<feOffset dy="0.32"/>
<feComposite in2="hardAlpha" operator="arithmetic" k2="-1" k3="1"/>
<feColorMatrix type="matrix" values="0 0 0 0 1 0 0 0 0 1 0 0 0 0 1 0 0 0 0.05 0"/>
<feBlend mode="normal" in2="effect3_innerShadow_2208_20439" result="effect4_innerShadow_2208_20439"/>
<feColorMatrix in="SourceAlpha" type="matrix" values="0 0 0 0 0 0 0 0 0 0 0 0 0 0 0 0 0 0 127 0" result="hardAlpha"/>
<feOffset dy="-3.2"/>
<feGaussianBlur stdDeviation="1.6"/>
<feComposite in2="hardAlpha" operator="arithmetic" k2="-1" k3="1"/>
<feColorMatrix type="matrix" values="0 0 0 0 0.0509804 0 0 0 0 0.603922 0 0 0 0 1 0 0 0 0.4 0"/>
<feBlend mode="overlay" in2="effect4_innerShadow_2208_20439" result="effect5_innerShadow_2208_20439"/>
</filter>
</defs>
</svg>
