<svg width="42" height="41" viewBox="0 0 42 41" fill="none" xmlns="http://www.w3.org/2000/svg">
<g filter="url(#filter0_biiii_2193_17072)">
<path fill-rule="evenodd" clip-rule="evenodd" d="M7.72278 28.2231H10.583C10.583 28.2231 10.9279 27.0447 11.4411 26.364C11.9409 25.701 13.1573 24.7908 13.1573 24.7908H7.72278V28.2231ZM7.72272 28.222C6.70856 28.222 5.70432 28.0222 4.76736 27.6341C3.8304 27.246 2.97905 26.6771 2.26193 25.96C1.54481 25.2429 0.97596 24.3916 0.587856 23.4546C0.199753 22.5176 0 21.5134 0 20.4992C0 19.4851 0.199755 18.4808 0.587858 17.5439C0.97596 16.6069 1.54481 15.7556 2.26193 15.0385C2.97905 14.3213 3.8304 13.7525 4.76736 13.3644C5.70433 12.9763 6.70856 12.7765 7.72272 12.7765L7.72271 12.7767H20.8799V16.2091H7.72271L7.72272 16.2116C7.15966 16.2116 6.60211 16.3225 6.08191 16.538C5.5617 16.7534 5.08904 17.0693 4.69089 17.4674C4.29274 17.8656 3.97692 18.3382 3.76144 18.8584C3.54597 19.3786 3.43506 19.9362 3.43506 20.4992C3.43506 21.0623 3.54597 21.6199 3.76144 22.1401C3.97692 22.6603 4.29274 23.1329 4.69089 23.5311C5.08904 23.9292 5.5617 24.245 6.0819 24.4605C6.60211 24.676 7.15965 24.7869 7.72272 24.7869V28.222ZM14.4588 4.19588C13.6102 5.46587 13.1573 6.95898 13.1573 8.48639H16.5952C16.5952 7.63894 16.8465 6.81052 17.3173 6.1059C17.7881 5.40126 18.4573 4.85207 19.2403 4.52777C20.0232 4.20346 20.8847 4.11861 21.7159 4.28394C22.5471 4.44927 23.3105 4.85736 23.9098 5.45659C24.509 6.05583 24.9171 6.81931 25.0824 7.65047C25.2478 8.48164 25.1629 9.34317 24.8386 10.1261C24.5143 10.9091 23.9651 11.5782 23.2605 12.0491C22.5558 12.5199 21.7274 12.7712 20.88 12.7712L20.88 16.2091C22.4074 16.2091 23.9005 15.7562 25.1705 14.9076C26.4405 14.059 27.4303 12.8529 28.0148 11.4417C28.5993 10.0306 28.7523 8.47783 28.4543 6.97977C28.1563 5.48171 27.4208 4.10565 26.3408 3.02561C25.2607 1.94557 23.8847 1.21005 22.3866 0.912067C20.8885 0.614082 19.3358 0.767017 17.9246 1.35153C16.5135 1.93605 15.3074 2.92589 14.4588 4.19588ZM31.1772 12.7775H34.0374C35.0516 12.7775 36.0558 12.9772 36.9928 13.3653C37.9297 13.7534 38.7811 14.3223 39.4982 15.0394C40.2153 15.7565 40.7842 16.6079 41.1723 17.5448C41.5604 18.4818 41.7601 19.486 41.7601 20.5002C41.7601 21.5143 41.5604 22.5186 41.1723 23.4555C40.7842 24.3925 40.2153 25.2438 39.4982 25.961C38.7811 26.6781 37.9297 27.2469 36.9928 27.635C36.0558 28.0231 35.0516 28.2229 34.0374 28.2229V28.2227H20.8802V24.7904H34.0374V24.7878C34.6005 24.7878 35.158 24.6769 35.6782 24.4615C36.1984 24.246 36.6711 23.9302 37.0692 23.532C37.4674 23.1339 37.7832 22.6612 37.9987 22.141C38.2142 21.6208 38.3251 21.0632 38.3251 20.5002C38.3251 19.9371 38.2142 19.3796 37.9987 18.8594C37.7832 18.3392 37.4674 17.8665 37.0692 17.4684C36.6711 17.0702 36.1984 16.7544 35.6782 16.5389C35.158 16.3234 34.6005 16.2125 34.0374 16.2125V16.2098H28.6029C28.6029 16.2098 29.8193 15.2996 30.3191 14.6366C30.8323 13.9559 31.1772 12.7775 31.1772 12.7775ZM27.3014 36.8035C28.15 35.5335 28.6029 34.0404 28.6029 32.513L25.165 32.5129C25.165 33.3604 24.9137 34.1888 24.4429 34.8934C23.972 35.5981 23.3028 36.1473 22.5199 36.4716C21.737 36.7959 20.8754 36.8807 20.0443 36.7154C19.2131 36.5501 18.4496 36.142 17.8504 35.5428C17.2512 34.9435 16.8431 34.18 16.6777 33.3489C16.5124 32.5177 16.5973 31.6562 16.9216 30.8732C17.2459 30.0903 17.7951 29.4211 18.4997 28.9503C19.2043 28.4795 20.0327 28.2282 20.8802 28.2282V24.7902C19.3528 24.7902 17.8597 25.2432 16.5897 26.0917C15.3197 26.9403 14.3298 28.1465 13.7453 29.5576C13.1608 30.9687 13.0079 32.5215 13.3059 34.0196C13.6038 35.5176 14.3394 36.8937 15.4194 37.9737C16.4994 39.0538 17.8755 39.7893 19.3736 40.0873C20.8716 40.3853 22.4244 40.2323 23.8355 39.6478C25.2467 39.0633 26.4528 38.0735 27.3014 36.8035Z" fill="#0065FB"/>
</g>
<defs>
<filter id="filter0_biiii_2193_17072" x="-2.52" y="-1.75633" width="46.8001" height="44.5127" filterUnits="userSpaceOnUse" color-interpolation-filters="sRGB">
<feFlood flood-opacity="0" result="BackgroundImageFix"/>
<feGaussianBlur in="BackgroundImageFix" stdDeviation="1.26"/>
<feComposite in2="SourceAlpha" operator="in" result="effect1_backgroundBlur_2193_17072"/>
<feBlend mode="normal" in="SourceGraphic" in2="effect1_backgroundBlur_2193_17072" result="shape"/>
<feColorMatrix in="SourceAlpha" type="matrix" values="0 0 0 0 0 0 0 0 0 0 0 0 0 0 0 0 0 0 127 0" result="hardAlpha"/>
<feOffset dx="1.2" dy="1.2"/>
<feGaussianBlur stdDeviation="1.38"/>
<feComposite in2="hardAlpha" operator="arithmetic" k2="-1" k3="1"/>
<feColorMatrix type="matrix" values="0 0 0 0 0.0509804 0 0 0 0 0.603922 0 0 0 0 1 0 0 0 0.18 0"/>
<feBlend mode="normal" in2="shape" result="effect2_innerShadow_2193_17072"/>
<feColorMatrix in="SourceAlpha" type="matrix" values="0 0 0 0 0 0 0 0 0 0 0 0 0 0 0 0 0 0 127 0" result="hardAlpha"/>
<feOffset dy="0.24"/>
<feGaussianBlur stdDeviation="0.36"/>
<feComposite in2="hardAlpha" operator="arithmetic" k2="-1" k3="1"/>
<feColorMatrix type="matrix" values="0 0 0 0 1 0 0 0 0 1 0 0 0 0 1 0 0 0 0.05 0"/>
<feBlend mode="normal" in2="effect2_innerShadow_2193_17072" result="effect3_innerShadow_2193_17072"/>
<feColorMatrix in="SourceAlpha" type="matrix" values="0 0 0 0 0 0 0 0 0 0 0 0 0 0 0 0 0 0 127 0" result="hardAlpha"/>
<feOffset dy="0.12"/>
<feComposite in2="hardAlpha" operator="arithmetic" k2="-1" k3="1"/>
<feColorMatrix type="matrix" values="0 0 0 0 1 0 0 0 0 1 0 0 0 0 1 0 0 0 0.05 0"/>
<feBlend mode="normal" in2="effect3_innerShadow_2193_17072" result="effect4_innerShadow_2193_17072"/>
<feColorMatrix in="SourceAlpha" type="matrix" values="0 0 0 0 0 0 0 0 0 0 0 0 0 0 0 0 0 0 127 0" result="hardAlpha"/>
<feOffset dy="-1.2"/>
<feGaussianBlur stdDeviation="0.6"/>
<feComposite in2="hardAlpha" operator="arithmetic" k2="-1" k3="1"/>
<feColorMatrix type="matrix" values="0 0 0 0 0.0509804 0 0 0 0 0.603922 0 0 0 0 1 0 0 0 0.4 0"/>
<feBlend mode="overlay" in2="effect4_innerShadow_2193_17072" result="effect5_innerShadow_2193_17072"/>
</filter>
</defs>
</svg>
