<svg width="94" height="100" viewBox="0 0 94 100" fill="none" xmlns="http://www.w3.org/2000/svg">
<g clip-path="url(#clip0_2175_15083)">
<path d="M83 51.4994C83 58.9724 78.977 65.9414 72.5 69.6854C71.066 70.5194 69.233 70.0244 68.402 68.5934C67.574 67.1564 68.063 65.3234 69.497 64.4954C74.123 61.8164 76.997 56.8394 76.997 51.4994C76.997 43.6544 71.423 36.8504 63.746 35.3174C60.872 34.7444 58.511 32.9144 57.272 30.2984C53.726 22.8164 45.821 18.8174 37.571 20.3114C30.35 21.6344 24.464 27.6314 23.258 34.8974C22.892 37.1024 22.916 39.3044 23.33 41.4404C23.906 44.4074 22.799 47.5844 20.441 49.7294C18.254 51.7154 17.003 54.5474 17.003 57.4994C17.003 61.6094 19.778 65.1914 23.753 66.2144C25.358 66.6284 26.321 68.2664 25.91 69.8684C25.562 71.2214 24.344 72.1214 23.006 72.1214C22.757 72.1214 22.508 72.0914 22.256 72.0284C15.632 70.3214 11.006 64.3454 11.006 57.4994C11.006 52.8614 12.974 48.4124 16.409 45.2894C17.228 44.5454 17.624 43.5104 17.447 42.5864C16.895 39.7484 16.862 36.8294 17.348 33.9164C18.98 24.0494 26.675 16.2104 36.491 14.4134C47.273 12.4334 58.043 17.9144 62.696 27.7274C63.116 28.6154 63.926 29.2364 64.922 29.4344C75.398 31.5224 83 40.8014 83 51.4964V51.4994Z" fill="#0067FF"/>
<path fill-rule="evenodd" clip-rule="evenodd" d="M63.896 56.768C63.068 55.331 61.235 54.839 59.798 55.667L56.867 57.356C55.052 55.4 52.688 53.978 50 53.363V50C50 48.341 48.656 47 47 47C45.344 47 44 48.341 44 50V53.363C41.312 53.978 38.945 55.397 37.133 57.356L34.202 55.667C32.768 54.842 30.932 55.334 30.104 56.768C29.279 58.205 29.771 60.038 31.208 60.863L34.157 62.561C33.77 63.815 33.503 65.12 33.503 66.5C33.503 67.88 33.77 69.185 34.157 70.439L31.208 72.137C29.771 72.962 29.279 74.798 30.104 76.232C30.659 77.195 31.667 77.735 32.708 77.735C33.215 77.735 33.731 77.606 34.202 77.333L37.133 75.644C38.948 77.6 41.312 79.022 44 79.637V83C44 84.659 45.344 86 47 86C48.656 86 50 84.659 50 83V79.637C52.688 79.022 55.055 77.603 56.867 75.644L59.798 77.333C60.269 77.606 60.785 77.735 61.292 77.735C62.33 77.735 63.341 77.195 63.896 76.232C64.721 74.795 64.229 72.962 62.792 72.137L59.843 70.439C60.23 69.185 60.497 67.88 60.497 66.5C60.497 65.12 60.23 63.815 59.843 62.561L62.792 60.863C64.229 60.038 64.721 58.202 63.896 56.768ZM39.5 66.5C39.5 70.637 42.866 74 47 74C51.134 74 54.5 70.637 54.5 66.5C54.5 62.363 51.134 59 47 59C42.866 59 39.5 62.363 39.5 66.5Z" fill="#B7D5FF"/>
</g>
<defs>
<clipPath id="clip0_2175_15083">
<rect width="72" height="72" fill="white" transform="translate(11 14)"/>
</clipPath>
</defs>
</svg>
