<svg width="95" height="98" viewBox="0 0 95 98" fill="none" xmlns="http://www.w3.org/2000/svg">
<g clip-path="url(#clip0_2175_15079)">
<path d="M17.5 20.5C17.5 16.357 20.857 13 25 13C29.143 13 32.5 16.357 32.5 20.5C32.5 24.643 29.143 28 25 28C20.857 28 17.5 24.643 17.5 20.5ZM32.5 43C30.844 43 29.5 44.341 29.5 46V58H23.5C20.191 58 17.5 55.309 17.5 52V43C17.5 39.691 20.191 37 23.5 37H53.5C55.156 37 56.5 35.659 56.5 34C56.5 32.341 55.156 31 53.5 31H23.5C16.882 31 11.5 36.382 11.5 43V52C11.5 56.422 13.93 60.25 17.5 62.332V82C17.5 83.659 18.844 85 20.5 85C22.156 85 23.5 83.659 23.5 82V64H29.5V82C29.5 83.659 30.844 85 32.5 85C34.156 85 35.5 83.659 35.5 82V46C35.5 44.341 34.156 43 32.5 43Z" fill="#B7D5FF"/>
<path fill-rule="evenodd" clip-rule="evenodd" d="M83.5 70V76C83.5 80.962 79.462 85 74.5 85H68.5C66.187 85 64.096 84.097 62.5 82.66C60.904 84.1 58.813 85 56.5 85H50.5C45.538 85 41.5 80.962 41.5 76V70C41.5 65.038 45.538 61 50.5 61H51.052C50.716 60.058 50.5 59.056 50.5 58V52C50.5 47.038 54.538 43 59.5 43H65.5C70.462 43 74.5 47.038 74.5 52V58C74.5 59.056 74.284 60.058 73.948 61H74.5C79.462 61 83.5 65.038 83.5 70ZM59.5 70V76C59.5 77.656 58.153 79 56.5 79H50.5C48.847 79 47.5 77.656 47.5 76V70C47.5 68.344 48.847 67 50.5 67H56.5C58.153 67 59.5 68.344 59.5 70ZM56.5 58C56.5 59.656 57.847 61 59.5 61H65.5C67.153 61 68.5 59.656 68.5 58V52C68.5 50.344 67.153 49 65.5 49H59.5C57.847 49 56.5 50.344 56.5 52V58ZM74.5 67C76.153 67 77.5 68.344 77.5 70V76C77.5 77.656 76.153 79 74.5 79H68.5C66.847 79 65.5 77.656 65.5 76V70C65.5 68.344 66.847 67 68.5 67H74.5Z" fill="#0067FF"/>
</g>
<defs>
<clipPath id="clip0_2175_15079">
<rect width="72" height="72" fill="white" transform="translate(11.5 13)"/>
</clipPath>
</defs>
</svg>
