<svg width="86" height="100" viewBox="0 0 86 100" fill="none" xmlns="http://www.w3.org/2000/svg">
<g clip-path="url(#clip0_2175_15082)">
<path d="M62.743 20.4207L43.948 14.1537C43.3326 13.9488 42.6674 13.9488 42.052 14.1537L23.257 20.4207C20.2687 21.4134 17.6693 23.3225 15.8279 25.8769C13.9866 28.4312 12.9971 31.5009 13 34.6497V50.0007C13 72.6897 40.6 85.2207 41.782 85.7427C42.1655 85.9131 42.5804 86.0011 43 86.0011C43.4196 86.0011 43.8345 85.9131 44.218 85.7427C45.4 85.2207 73 72.6897 73 50.0007V34.6497C73.0029 31.5009 72.0134 28.4312 70.1721 25.8769C68.3308 23.3225 65.7313 21.4134 62.743 20.4207ZM67 50.0007C67 66.3657 48.043 77.0997 43 79.6677C37.951 77.1087 19 66.4077 19 50.0007V34.6497C19.0002 32.7606 19.5948 30.9193 20.6997 29.3869C21.8046 27.8546 23.3636 26.7087 25.156 26.1117L43 20.1627L60.844 26.1117C62.6364 26.7087 64.1954 27.8546 65.3003 29.3869C66.4052 30.9193 66.9998 32.7606 67 34.6497V50.0007Z" fill="#0067FF"/>
<path d="M52.9 38.8992L40.336 51.4992L33.604 44.4792C33.3338 44.1839 33.0073 43.9455 32.6436 43.7783C32.2799 43.6111 31.8864 43.5183 31.4863 43.5055C31.0862 43.4927 30.6876 43.5601 30.3139 43.7037C29.9403 43.8473 29.5991 44.0643 29.3106 44.3418C29.0221 44.6193 28.792 44.9517 28.634 45.3195C28.476 45.6873 28.3931 46.083 28.3903 46.4833C28.3876 46.8836 28.465 47.2804 28.6179 47.6503C28.7709 48.0202 28.9963 48.3558 29.281 48.6372L36.199 55.8372C36.7149 56.3945 37.3385 56.8413 38.0321 57.1507C38.7256 57.4601 39.4747 57.6256 40.234 57.6372H40.333C41.0772 57.6397 41.8144 57.4943 42.5019 57.2095C43.1895 56.9247 43.8136 56.5062 44.338 55.9782L57.154 43.1622C57.4339 42.8829 57.6561 42.5512 57.8078 42.186C57.9595 41.8209 58.0378 41.4294 58.0382 41.0339C58.0386 40.6385 57.9612 40.2468 57.8102 39.8813C57.6593 39.5158 57.4378 39.1837 57.1585 38.9037C56.8792 38.6238 56.5475 38.4017 56.1823 38.25C55.8171 38.0983 55.4256 38.02 55.0302 38.0195C54.6347 38.0191 54.2431 38.0966 53.8776 38.2475C53.5121 38.3985 53.1799 38.6199 52.9 38.8992Z" fill="#B7D5FF"/>
</g>
<defs>
<clipPath id="clip0_2175_15082">
<rect width="72" height="72" fill="white" transform="translate(7 14)"/>
</clipPath>
</defs>
</svg>
