<svg width="101" height="100" viewBox="0 0 101 100" fill="none" xmlns="http://www.w3.org/2000/svg">
<path fill-rule="evenodd" clip-rule="evenodd" d="M46.5113 80.5067C42.9709 84.0499 38.2632 86 33.2525 86C28.2419 86 23.5342 84.0499 19.9937 80.5067C16.4503 76.9664 14.5 72.2561 14.5 67.2488C14.5 62.2415 16.4503 57.5312 19.9937 53.991L36.493 37.49C40.0335 33.9467 44.7441 31.9966 49.7518 31.9966C54.7594 31.9966 59.4701 33.9467 63.0136 37.493C63.7157 38.195 64.3608 38.9481 64.9308 39.7341C65.906 41.0752 65.6089 42.9503 64.2677 43.9254C62.9236 44.9034 61.0483 44.6034 60.0762 43.2623C59.6861 42.7283 59.2481 42.2153 58.768 41.7322C56.3617 39.3231 53.1572 37.997 49.7518 37.997C46.3463 37.997 43.1449 39.3231 40.7356 41.7322L24.2333 58.2333C21.824 60.6394 20.4978 63.8436 20.4978 67.2488C20.4978 70.654 21.824 73.8552 24.2333 76.2644C26.6426 78.6735 29.8441 79.9996 33.2495 79.9996C36.655 79.9996 39.8564 78.6735 42.2658 76.2644L45.4432 73.0902C46.6163 71.9201 48.5156 71.9171 49.6858 73.0902C50.8589 74.2633 50.8589 76.1624 49.6858 77.3325L46.5113 80.5067Z" fill="#0067FF"/>
<path d="M37.9992 62.5085C37.3091 61.8185 36.661 61.0624 36.0759 60.2644C35.1008 58.9263 35.3948 57.0482 36.736 56.0731C38.0742 55.0981 39.9494 55.3921 40.9276 56.7302C41.3146 57.2642 41.7497 57.7772 42.2388 58.2633C44.6481 60.6724 47.8495 61.9985 51.255 61.9985C54.6604 61.9985 57.8649 60.6724 60.2712 58.2633L76.7734 41.7622C81.7451 36.7909 81.7451 28.6994 76.7734 23.7281C71.8018 18.7568 63.7097 18.7568 58.738 23.7281L55.5636 26.9023C54.3904 28.0754 52.4941 28.0754 51.321 26.9023C50.1478 25.7292 50.1478 23.8331 51.321 22.66L54.4954 19.4858C61.8074 12.1714 73.704 12.1714 81.016 19.4858C88.328 26.7973 88.328 38.693 81.016 46.0045L64.5138 62.5055C60.9733 66.0488 56.2627 67.9989 51.255 67.9989C46.2473 67.9989 41.5367 66.0488 37.9992 62.5085Z" fill="#B7D5FF"/>
</svg>
